<svg version="1.1" id="Layer_1" xmlns="http://www.w3.org/2000/svg" xmlns:xlink="http://www.w3.org/1999/xlink" x="0px" y="0px"
	 width="100%" viewBox="0 0 202 249" enable-background="new 0 0 202 249" xml:space="preserve">
<path fill="#FF2116" opacity="1.000000" stroke="none" 
	d="
M1.000000,229.000000 
	C1.000000,160.312439 1.000000,91.624878 1.335173,22.313517 
	C2.626413,19.060143 3.297187,16.279716 4.592673,13.829608 
	C8.302927,6.812531 14.827224,3.422375 22.000000,1.000000 
	C62.354229,1.000000 102.708458,1.000000 143.696014,1.348548 
	C150.658112,2.095841 155.661880,5.205362 160.039459,9.495474 
	C169.913788,19.172495 179.984879,28.665552 189.500107,38.685322 
	C194.515869,43.967049 198.532333,50.197773 203.000000,56.000004 
	C203.000000,57.388889 203.000000,58.777779 202.749146,60.913460 
	C202.332550,62.965458 202.022507,64.270599 202.021896,65.575882 
	C201.997360,117.470085 201.992081,169.364304 202.042755,221.258453 
	C202.044296,222.839294 202.666916,224.419495 203.000000,226.000000 
	C203.000000,226.750000 203.000000,227.500000 202.664490,228.781006 
	C199.693604,233.986603 197.856720,239.467941 194.188339,243.098831 
	C190.817581,246.435165 185.474274,247.778580 181.000000,250.000000 
	C180.555557,250.000000 180.111099,250.000000 179.005508,249.745880 
	C177.038574,249.328232 175.732849,249.022354 174.426971,249.021698 
	C125.528435,248.997086 76.629868,248.991302 27.731365,249.042404 
	C26.153912,249.044052 24.577106,249.666794 23.000000,250.000000 
	C23.000000,250.000000 22.500000,250.000000 22.094051,249.665161 
	C20.720991,249.117599 19.726742,248.987381 18.790953,248.679474 
	C9.130098,245.500793 4.045061,238.168884 1.000000,229.000000 
M8.632405,24.630470 
	C8.421529,26.088072 8.026897,27.545586 8.026203,29.003288 
	C7.995595,93.279335 7.990231,157.555405 8.051504,221.831406 
	C8.053129,223.536224 8.823914,225.240341 9.681032,227.494247 
	C11.438603,235.873474 17.248804,239.920654 25.634821,242.432068 
	C26.932919,242.621292 28.230921,242.975189 29.529131,242.975952 
	C77.787735,243.004257 126.046364,243.010605 174.304901,242.951935 
	C175.859100,242.950043 177.412445,242.237183 179.554947,241.441223 
	C188.383972,239.970474 192.861908,234.189377 195.447327,225.363419 
	C195.631470,224.063263 195.975998,222.763199 195.976669,221.462952 
	C196.003769,168.865112 196.010254,116.267258 195.948288,63.669479 
	C195.946472,62.130733 195.180267,60.592884 194.341904,58.504425 
	C192.442490,55.466717 191.012329,51.968590 188.562103,49.471325 
	C178.192017,38.902153 167.414368,28.733574 157.006073,18.200792 
	C152.694870,13.838028 148.083145,10.338147 141.366272,8.584125 
	C140.070206,8.389539 138.774261,8.026062 137.478043,8.024966 
	C101.203568,7.994303 64.929039,7.984848 28.654676,8.053960 
	C27.123371,8.056878 25.593565,8.845982 23.520336,9.724273 
	C15.483253,11.236580 11.446446,16.736036 8.632405,24.630470 
z"/>
<path fill="#FFFDFD" opacity="1.000000" stroke="none" 
	d="
M203.000000,55.531345 
	C198.532333,50.197773 194.515869,43.967049 189.500107,38.685322 
	C179.984879,28.665552 169.913788,19.172495 160.039459,9.495474 
	C155.661880,5.205362 150.658112,2.095841 144.164673,1.348548 
	C163.590881,1.000000 183.181778,1.000000 203.000000,1.000000 
	C203.000000,19.020258 203.000000,37.041470 203.000000,55.531345 
z"/>
<path fill="#FF2A1F" opacity="1.000000" stroke="none" 
	d="
M203.000000,225.531342 
	C202.666916,224.419495 202.044296,222.839294 202.042755,221.258453 
	C201.992081,169.364304 201.997360,117.470085 202.021896,65.575882 
	C202.022507,64.270599 202.332550,62.965458 202.749146,61.330124 
	C203.000000,115.687561 203.000000,170.375122 203.000000,225.531342 
z"/>
<path fill="#FF2D22" opacity="1.000000" stroke="none" 
	d="
M23.468658,250.000000 
	C24.577106,249.666794 26.153912,249.044052 27.731365,249.042404 
	C76.629868,248.991302 125.528435,248.997086 174.426971,249.021698 
	C175.732849,249.022354 177.038574,249.328232 178.672180,249.745880 
	C127.312439,250.000000 75.624878,250.000000 23.468658,250.000000 
z"/>
<path fill="#FFFAFA" opacity="1.000000" stroke="none" 
	d="
M181.468781,250.000000 
	C185.474274,247.778580 190.817581,246.435165 194.188339,243.098831 
	C197.856720,239.467941 199.693604,233.986603 202.664490,229.156006 
	C203.000000,235.927933 203.000000,242.855865 203.000000,250.000000 
	C195.980667,250.000000 188.959106,250.000000 181.468781,250.000000 
z"/>
<path fill="#FEF9F9" opacity="1.000000" stroke="none" 
	d="
M21.531088,1.000000 
	C14.827224,3.422375 8.302927,6.812531 4.592673,13.829608 
	C3.297187,16.279716 2.626413,19.060143 1.335173,21.844860 
	C1.000000,15.073850 1.000000,8.147699 1.000000,1.000000 
	C7.685770,1.000000 14.373973,1.000000 21.531088,1.000000 
z"/>
<path fill="#FFFAFA" opacity="1.000000" stroke="none" 
	d="
M1.000000,229.468918 
	C4.045061,238.168884 9.130098,245.500793 18.790953,248.679474 
	C19.726742,248.987381 20.720991,249.117599 21.844051,249.665161 
	C15.073852,250.000000 8.147703,250.000000 1.000000,250.000000 
	C1.000000,243.314240 1.000000,236.626038 1.000000,229.468918 
z"/>
<path fill="#F5F3F3" opacity="1.000000" stroke="none" 
	d="
M141.959747,9.167336 
	C148.083145,10.338147 152.694870,13.838028 157.006073,18.200792 
	C167.414368,28.733574 178.192017,38.902153 188.562103,49.471325 
	C191.012329,51.968590 192.442490,55.466717 194.521332,59.243607 
	C194.720901,68.648941 194.751389,77.315079 194.759415,85.981239 
	C194.802673,132.644638 194.840363,179.308029 194.879974,225.971420 
	C192.861908,234.189377 188.383972,239.970474 178.797714,241.585968 
	C127.038277,241.772751 76.036064,241.814789 25.033857,241.856827 
	C17.248804,239.920654 11.438603,235.873474 9.480977,226.754807 
	C9.265911,158.695496 9.250900,91.375618 9.235889,24.055750 
	C11.446446,16.736036 15.483253,11.236580 24.256117,9.514088 
	C63.981182,9.258380 102.970467,9.212858 141.959747,9.167336 
M118.909409,116.707649 
	C119.241203,116.904755 119.572998,117.101860 120.237076,117.869873 
	C121.896469,118.954926 123.496979,120.145920 125.225533,121.106506 
	C132.302856,125.039459 139.767120,127.944519 147.939163,125.931183 
	C150.353027,125.336494 153.660797,122.772629 153.979248,120.712402 
	C154.362045,118.235985 152.593918,114.714577 150.630997,112.800270 
	C148.874832,111.087593 145.588989,110.943459 142.182816,109.913841 
	C134.459076,110.316467 126.735344,110.719101 118.330605,111.018631 
	C117.644318,110.980080 116.958023,110.941536 116.080139,110.352600 
	C115.786720,110.111740 115.493301,109.870880 115.196228,109.795395 
	C115.196228,109.795395 115.359924,109.771645 115.187157,109.262405 
	C114.938255,109.011566 114.689354,108.760719 114.419075,108.457573 
	C114.419075,108.457573 114.379372,108.417374 114.103271,107.829643 
	C111.760429,105.165421 109.417587,102.501198 106.989418,99.147385 
	C105.021271,96.365845 103.053116,93.584312 101.096153,90.031334 
	C101.494606,88.264381 101.979927,86.511871 102.276466,84.727974 
	C103.549438,77.070206 105.201454,69.439217 105.840546,61.725990 
	C106.220055,57.145721 105.033554,52.398773 99.505249,49.834789 
	C99.340759,49.909523 99.176270,49.984253 98.326530,49.816895 
	C97.213394,49.597698 96.100266,49.378502 94.273338,49.192192 
	C92.797302,51.484470 90.314651,53.655766 90.022034,56.090282 
	C88.847183,65.864853 90.709770,75.295525 94.860680,84.945801 
	C90.268532,96.300301 85.676376,107.654800 80.824135,119.412041 
	C80.824135,119.412041 80.781479,119.889565 80.873871,119.878960 
	C80.873871,119.878960 80.846954,119.789940 80.354988,120.161713 
	C80.124435,120.733650 79.893883,121.305588 79.873192,121.883362 
	C79.873192,121.883362 79.862343,121.673698 79.279778,121.853119 
	C78.797211,122.198822 78.314644,122.544518 77.915100,122.919991 
	C77.915100,122.919991 77.934525,122.833961 77.412437,122.872360 
	C77.117645,123.049782 76.822853,123.227203 76.438087,123.397041 
	C76.438087,123.397041 76.367317,123.453125 75.720680,123.688789 
	C72.335144,125.382309 68.735413,126.755508 65.613426,128.843140 
	C60.723217,132.113190 55.692020,135.406006 51.585278,139.546799 
	C47.664330,143.500244 48.830257,147.363113 53.910316,150.218964 
	C53.910316,150.218964 53.635864,150.335663 53.955849,150.760010 
	C54.295795,150.796494 54.635746,150.832993 55.816174,151.055115 
	C62.422722,151.644730 67.528877,148.490540 71.492813,143.821213 
	C76.315842,138.139938 80.391396,131.830307 85.051277,126.001106 
	C86.816101,123.793434 89.307991,122.166985 92.217926,120.217339 
	C99.213699,118.409180 106.187935,116.508507 113.223450,114.871170 
	C114.625061,114.544968 116.261024,115.225777 117.772018,115.253212 
	C117.772018,115.253212 117.588737,115.302376 117.853348,115.800194 
	C118.176964,115.983162 118.500572,116.166130 118.839104,116.169075 
	C118.839104,116.169075 118.658638,116.176758 118.909409,116.707649 
M129.890427,197.726974 
	C131.886948,197.712982 133.884064,197.725037 135.879868,197.679581 
	C140.004654,197.585648 140.004364,197.573044 139.079819,193.183853 
	C127.035759,192.466125 127.035759,192.466125 128.420471,180.993103 
	C133.057205,180.993103 137.777145,180.993103 142.812866,180.993103 
	C142.610901,178.997299 142.470291,177.607864 142.267502,175.603867 
	C135.258743,176.087143 128.631439,176.544128 121.818283,177.500107 
	C121.862984,177.671875 121.907692,177.843658 121.733429,178.928436 
	C121.811157,190.282562 121.888885,201.636703 121.930595,213.582001 
	C122.277748,213.689392 122.624893,213.796768 123.855850,214.084259 
	C125.109352,214.084259 126.362854,214.084259 127.927414,214.084259 
	C127.927414,211.223877 127.902702,208.784119 127.934341,206.345093 
	C127.966179,203.891235 128.054062,201.438126 128.480850,198.704086 
	C128.695816,198.482147 128.871292,198.232452 129.890427,197.726974 
M61.422180,177.392212 
	C61.480965,177.559708 61.539753,177.727219 61.336617,178.682938 
	C61.322319,186.173553 61.221405,193.665405 61.327576,201.154327 
	C61.387238,205.362915 61.788998,209.566650 62.483040,214.023468 
	C62.648396,213.981125 62.813755,213.938797 63.765846,214.070648 
	C66.448921,214.145020 67.639114,212.917938 67.537201,210.164978 
	C67.405380,206.604050 67.505051,203.034531 67.505051,199.059830 
	C70.492500,199.059830 72.640930,199.187943 74.769150,199.034927 
	C80.351662,198.633545 83.495132,195.663742 84.391647,190.130096 
	C85.340355,184.274307 83.035149,178.297058 78.109283,177.323059 
	C72.807762,176.274811 67.159912,176.978165 61.422180,177.392212 
M91.891396,214.077530 
	C97.952255,213.880051 104.326218,215.340942 109.549622,210.722824 
	C115.501884,205.460297 117.315880,191.674301 113.197067,184.177185 
	C109.158943,176.826935 98.836029,174.553986 89.750343,177.498978 
	C89.800003,177.676025 89.849670,177.853088 89.648338,178.934326 
	C89.733170,190.281342 89.818001,201.628342 89.869469,213.591019 
	C90.237862,213.694199 90.606247,213.797363 91.891396,214.077530 
z"/>
<path fill="#FF0000" opacity="1.000000" stroke="none" 
	d="
M8.934147,24.343109 
	C9.250900,91.375618 9.265911,158.695496 9.258465,226.480072 
	C8.823914,225.240341 8.053129,223.536224 8.051504,221.831406 
	C7.990231,157.555405 7.995595,93.279335 8.026203,29.003288 
	C8.026897,27.545586 8.421529,26.088072 8.934147,24.343109 
z"/>
<path fill="#FF0000" opacity="1.000000" stroke="none" 
	d="
M195.163651,225.667419 
	C194.840363,179.308029 194.802673,132.644638 194.759415,85.981239 
	C194.751389,77.315079 194.720901,68.648941 194.735626,59.518703 
	C195.180267,60.592884 195.946472,62.130733 195.948288,63.669479 
	C196.010254,116.267258 196.003769,168.865112 195.976669,221.462952 
	C195.975998,222.763199 195.631470,224.063263 195.163651,225.667419 
z"/>
<path fill="#FF0000" opacity="1.000000" stroke="none" 
	d="
M25.334339,242.144440 
	C76.036064,241.814789 127.038277,241.772751 178.503326,241.793243 
	C177.412445,242.237183 175.859100,242.950043 174.304901,242.951935 
	C126.046364,243.010605 77.787735,243.004257 29.529131,242.975952 
	C28.230921,242.975189 26.932919,242.621292 25.334339,242.144440 
z"/>
<path fill="#FF0000" opacity="1.000000" stroke="none" 
	d="
M141.663010,8.875731 
	C102.970467,9.212858 63.981182,9.258380 24.527479,9.286367 
	C25.593565,8.845982 27.123371,8.056878 28.654676,8.053960 
	C64.929039,7.984848 101.203568,7.994303 137.478043,8.024966 
	C138.774261,8.026062 140.070206,8.389539 141.663010,8.875731 
z"/>
<path fill="#FF2319" opacity="1.000000" stroke="none" 
	d="
M91.468483,120.275604 
	C89.307991,122.166985 86.816101,123.793434 85.051277,126.001106 
	C80.391396,131.830307 76.315842,138.139938 71.492813,143.821213 
	C67.528877,148.490540 62.422722,151.644730 55.205940,150.802811 
	C54.297306,150.382706 53.977360,150.311081 53.635864,150.335663 
	C53.635864,150.335663 53.910316,150.218964 53.869488,149.913208 
	C53.885342,149.086121 53.942020,148.564774 54.386074,148.029465 
	C57.867256,146.331711 61.513233,145.210175 63.929863,142.836868 
	C67.892555,138.945221 71.056770,134.240479 74.843010,129.730057 
	C75.398956,129.020142 75.669617,128.458817 75.956413,127.921921 
	C75.972542,127.946358 75.914337,127.939980 76.183037,127.646179 
	C76.423592,126.052635 76.395454,124.752876 76.367317,123.453125 
	C76.367317,123.453125 76.438087,123.397041 76.756416,123.423828 
	C77.361336,123.245071 77.647934,123.039513 77.934525,122.833961 
	C77.934525,122.833961 77.915100,122.919991 78.189758,122.873505 
	C78.930389,122.442581 79.396362,122.058136 79.862335,121.673691 
	C79.862343,121.673698 79.873192,121.883362 80.045853,121.714310 
	C80.427994,120.960144 80.637474,120.375046 80.846954,119.789940 
	C80.846954,119.789940 80.873871,119.878960 80.978241,119.830017 
	C81.367607,119.546104 81.368141,119.288849 81.084229,119.009300 
	C85.676376,107.654800 90.268532,96.300301 94.915932,84.107269 
	C95.085464,81.995605 95.199745,80.722481 95.655998,79.514816 
	C99.571823,71.748024 100.888008,63.531364 100.279236,54.846130 
	C100.435860,54.391472 100.294823,54.158302 99.976791,54.022091 
	C100.006157,54.022839 99.965828,54.065571 99.939774,53.865135 
	C99.616669,53.420586 99.319626,53.176479 98.793137,52.876869 
	C98.251495,52.686859 98.051476,52.455418 97.769508,51.880661 
	C96.712639,50.809288 95.849884,49.984299 94.987129,49.159309 
	C96.100266,49.378502 97.213394,49.597698 98.770576,50.056950 
	C99.214622,50.297005 99.633659,50.372520 99.633659,50.372520 
	C99.633659,50.372520 99.987282,50.082623 99.987282,50.082623 
	C105.033554,52.398773 106.220055,57.145721 105.840546,61.725990 
	C105.201454,69.439217 103.549438,77.070206 102.276466,84.727974 
	C101.979927,86.511871 101.494606,88.264381 100.950012,90.720039 
	C100.510277,92.008621 100.216698,92.608505 99.604324,93.357422 
	C96.268913,101.031639 93.252296,108.556808 90.086014,116.141823 
	C89.653236,116.441444 89.650032,116.704277 89.989380,117.198257 
	C90.052025,117.406364 90.058937,117.840973 90.122116,118.201378 
	C90.613029,119.133057 91.040756,119.704330 91.468483,120.275604 
z"/>
<path fill="#313131" opacity="1.000000" stroke="none" 
	d="
M89.902832,212.975357 
	C89.818001,201.628342 89.733170,190.281342 89.894592,178.369873 
	C90.343002,177.517624 90.285484,177.246536 89.968277,176.992172 
	C98.836029,174.553986 109.158943,176.826935 113.197067,184.177185 
	C117.315880,191.674301 115.501884,205.460297 109.549622,210.722824 
	C104.326218,215.340942 97.952255,213.880051 91.290001,213.797546 
	C90.448944,213.304535 90.187019,213.123810 89.902832,212.975357 
M95.950531,182.494461 
	C95.992767,182.657547 96.035004,182.820633 95.892448,183.907089 
	C95.953445,191.942062 96.014442,199.977020 96.023422,208.584229 
	C96.345741,208.707428 96.668060,208.830612 97.797974,209.148087 
	C102.227661,209.388580 106.383713,207.935379 107.163742,203.496826 
	C108.106873,198.130203 108.341743,192.339828 107.348328,187.019424 
	C106.423439,182.065994 101.054619,180.294586 95.950531,182.494461 
z"/>
<path fill="#2F2F2F" opacity="1.000000" stroke="none" 
	d="
M62.036636,213.772583 
	C61.788998,209.566650 61.387238,205.362915 61.327576,201.154327 
	C61.221405,193.665405 61.322319,186.173553 61.619362,178.201401 
	C61.968933,177.626602 62.112858,177.485718 62.089607,177.448090 
	C61.971252,177.256454 61.809635,177.091553 61.663162,176.917297 
	C67.159912,176.978165 72.807762,176.274811 78.109283,177.323059 
	C83.035149,178.297058 85.340355,184.274307 84.391647,190.130096 
	C83.495132,195.663742 80.351662,198.633545 74.769150,199.034927 
	C72.640930,199.187943 70.492500,199.059830 67.505051,199.059830 
	C67.505051,203.034531 67.405380,206.604050 67.537201,210.164978 
	C67.639114,212.917938 66.448921,214.145020 63.278099,213.873718 
	C62.532364,213.497177 62.281124,213.529099 62.036636,213.772583 
M72.783440,194.150558 
	C78.166084,193.665009 78.441032,189.830475 77.923676,185.850891 
	C77.365517,181.557419 74.392242,180.385025 67.779541,181.496048 
	C67.779541,185.683075 67.779541,189.873367 67.779541,194.258057 
	C69.407234,194.258057 70.708679,194.258057 72.783440,194.150558 
z"/>
<path fill="#333333" opacity="1.000000" stroke="none" 
	d="
M122.004128,177.001099 
	C128.631439,176.544128 135.258743,176.087143 142.267502,175.603867 
	C142.470291,177.607864 142.610901,178.997299 142.812866,180.993103 
	C137.777145,180.993103 133.057205,180.993103 128.420471,180.993103 
	C127.035759,192.466125 127.035759,192.466125 139.079819,193.183853 
	C140.004364,197.573044 140.004654,197.585648 135.879868,197.679581 
	C133.884064,197.725037 131.886948,197.712982 129.151794,197.819519 
	C128.314590,198.269592 128.215988,198.627136 128.117401,198.984680 
	C128.054062,201.438126 127.966179,203.891235 127.934341,206.345093 
	C127.902702,208.784119 127.927414,211.223877 127.927414,214.084259 
	C126.362854,214.084259 125.109352,214.084259 123.286842,213.801987 
	C122.497162,213.301193 122.246758,213.124893 121.966614,212.990829 
	C121.888885,201.636703 121.811157,190.282562 121.971855,178.363403 
	C122.424484,177.512772 122.355766,177.247025 122.004128,177.001099 
z"/>
<path fill="#FF231A" opacity="1.000000" stroke="none" 
	d="
M116.271736,110.902985 
	C116.958023,110.941536 117.644318,110.980080 118.706818,111.346069 
	C119.393333,112.118324 119.703636,112.563141 119.922348,113.358063 
	C126.639198,116.837807 133.343964,120.231247 140.306992,122.967491 
	C143.100204,124.065140 146.523407,122.670639 146.704239,119.342903 
	C146.812271,117.354744 144.516632,115.174522 143.126328,113.204216 
	C142.715012,112.621323 141.707352,112.459213 141.140930,111.874603 
	C141.865265,111.132362 142.421677,110.619804 142.978073,110.107246 
	C145.588989,110.943459 148.874832,111.087593 150.630997,112.800270 
	C152.593918,114.714577 154.362045,118.235985 153.979248,120.712402 
	C153.660797,122.772629 150.353027,125.336494 147.939163,125.931183 
	C139.767120,127.944519 132.302856,125.039459 125.225533,121.106506 
	C123.496979,120.145920 121.896469,118.954926 119.924866,117.336365 
	C119.294655,116.594147 118.976646,116.385452 118.658638,116.176758 
	C118.658638,116.176758 118.839104,116.169075 118.700500,116.005905 
	C118.237511,115.662621 117.913124,115.482498 117.588737,115.302376 
	C117.588737,115.302376 117.772018,115.253212 117.648483,115.028229 
	C116.314262,113.796837 115.103577,112.790421 113.804405,111.547203 
	C113.473793,110.883026 113.231674,110.455643 113.194069,109.737350 
	C113.725510,109.103416 114.052437,108.760399 114.379372,108.417374 
	C114.379372,108.417374 114.419075,108.457573 114.474991,108.761871 
	C114.807251,109.301323 115.083588,109.536484 115.359924,109.771645 
	C115.359924,109.771645 115.196228,109.795395 115.305496,109.980484 
	C115.700417,110.411369 115.986076,110.657181 116.271736,110.902985 
z"/>
<path fill="#FF1C16" opacity="1.000000" stroke="none" 
	d="
M76.043999,123.570953 
	C76.395454,124.752876 76.423592,126.052635 76.055374,127.327744 
	C67.240814,129.913498 59.706284,134.081680 53.557346,140.436264 
	C51.206150,142.866104 50.784130,145.687225 53.998703,148.043442 
	C53.942020,148.564774 53.885342,149.086121 53.742672,149.991653 
	C48.830257,147.363113 47.664330,143.500244 51.585278,139.546799 
	C55.692020,135.406006 60.723217,132.113190 65.613426,128.843140 
	C68.735413,126.755508 72.335144,125.382309 76.043999,123.570953 
z"/>
<path fill="#FF140E" opacity="1.000000" stroke="none" 
	d="
M95.314034,79.449348 
	C95.199745,80.722481 95.085464,81.995605 94.946991,83.747879 
	C90.709770,75.295525 88.847183,65.864853 90.022034,56.090282 
	C90.314651,53.655766 92.797302,51.484470 94.630234,49.175751 
	C95.849884,49.984299 96.712639,50.809288 97.385818,51.854942 
	C96.172173,52.067791 95.148117,52.059971 93.912430,52.060799 
	C93.529182,52.401264 93.357574,52.733082 93.112839,53.476784 
	C92.689499,56.292313 91.794212,58.766552 92.094612,61.085930 
	C92.892059,67.242775 94.205719,73.332764 95.314034,79.449348 
z"/>
<path fill="#FF1D16" opacity="1.000000" stroke="none" 
	d="
M113.892899,111.783997 
	C115.103577,112.790421 116.314262,113.796837 117.656937,115.122742 
	C116.261024,115.225777 114.625061,114.544968 113.223450,114.871170 
	C106.187935,116.508507 99.213699,118.409180 91.843201,120.246475 
	C91.040756,119.704330 90.613029,119.133057 90.494804,118.176422 
	C98.500511,115.788704 106.196701,113.786354 113.892899,111.783997 
z"/>
<path fill="#FF0F0C" opacity="1.000000" stroke="none" 
	d="
M142.580444,110.010544 
	C142.421677,110.619804 141.865265,111.132362 140.677719,111.896736 
	C133.369034,112.435020 126.691490,112.721489 120.013947,113.007950 
	C119.703636,112.563141 119.393333,112.118324 119.047318,111.397621 
	C126.735344,110.719101 134.459076,110.316467 142.580444,110.010544 
z"/>
<path fill="#FE1E19" opacity="1.000000" stroke="none" 
	d="
M114.241318,108.123505 
	C114.052437,108.760399 113.725510,109.103416 112.909363,109.562698 
	C110.215523,106.809418 108.010887,103.939873 106.054596,100.905045 
	C106.560219,100.438835 106.817490,100.137901 107.074753,99.836975 
	C109.417587,102.501198 111.760429,105.165421 114.241318,108.123505 
z"/>
<path fill="#FF1811" opacity="1.000000" stroke="none" 
	d="
M107.032089,99.492180 
	C106.817490,100.137901 106.560219,100.438835 105.776779,100.730545 
	C103.474785,98.217010 101.698952,95.712700 99.923119,93.208382 
	C100.216698,92.608505 100.510277,92.008621 100.944412,91.105759 
	C103.053116,93.584312 105.021271,96.365845 107.032089,99.492180 
z"/>
<path fill="#FF1C16" opacity="1.000000" stroke="none" 
	d="
M80.600967,119.975830 
	C80.637474,120.375046 80.427994,120.960144 79.940918,121.711388 
	C79.893883,121.305588 80.124435,120.733650 80.600967,119.975830 
z"/>
<path fill="#FF1C16" opacity="1.000000" stroke="none" 
	d="
M79.571060,121.763405 
	C79.396362,122.058136 78.930389,122.442581 78.148239,122.858620 
	C78.314644,122.544518 78.797211,122.198822 79.571060,121.763405 
z"/>
<path fill="#FE1E19" opacity="1.000000" stroke="none" 
	d="
M115.273544,109.517029 
	C115.083588,109.536484 114.807251,109.301323 114.485687,108.788017 
	C114.689354,108.760719 114.938255,109.011566 115.273544,109.517029 
z"/>
<path fill="#FF140E" opacity="1.000000" stroke="none" 
	d="
M99.746262,49.958706 
	C99.987282,50.082623 99.633659,50.372520 99.633659,50.372520 
	C99.633659,50.372520 99.214622,50.297005 99.113197,50.177994 
	C99.176270,49.984253 99.340759,49.909523 99.746262,49.958706 
z"/>
<path fill="#FF1C16" opacity="1.000000" stroke="none" 
	d="
M80.954178,119.210670 
	C81.368141,119.288849 81.367607,119.546104 80.932053,119.835312 
	C80.781479,119.889565 80.824135,119.412041 80.954178,119.210670 
z"/>
<path fill="#FF1D16" opacity="1.000000" stroke="none" 
	d="
M117.721039,115.551285 
	C117.913124,115.482498 118.237511,115.662621 118.693039,116.095917 
	C118.500572,116.166130 118.176964,115.983162 117.721039,115.551285 
z"/>
<path fill="#181818" opacity="1.000000" stroke="none" 
	d="
M121.948608,213.286407 
	C122.246758,213.124893 122.497162,213.301193 122.844940,213.711945 
	C122.624893,213.796768 122.277748,213.689392 121.948608,213.286407 
z"/>
<path fill="#1C1C1C" opacity="1.000000" stroke="none" 
	d="
M89.886154,213.283188 
	C90.187019,213.123810 90.448944,213.304535 90.831619,213.709045 
	C90.606247,213.797363 90.237862,213.694199 89.886154,213.283188 
z"/>
<path fill="#232323" opacity="1.000000" stroke="none" 
	d="
M62.259838,213.898026 
	C62.281124,213.529099 62.532364,213.497177 62.884735,213.786636 
	C62.813755,213.938797 62.648396,213.981125 62.259838,213.898026 
z"/>
<path fill="#FE1E19" opacity="1.000000" stroke="none" 
	d="
M116.175934,110.627792 
	C115.986076,110.657181 115.700417,110.411369 115.307320,109.897789 
	C115.493301,109.870880 115.786720,110.111740 116.175934,110.627792 
z"/>
<path fill="#FDFDFD" opacity="1.000000" stroke="none" 
	d="
M128.299133,198.844391 
	C128.215988,198.627136 128.314590,198.269592 128.710220,197.933502 
	C128.871292,198.232452 128.695816,198.482147 128.299133,198.844391 
z"/>
<path fill="#181818" opacity="1.000000" stroke="none" 
	d="
M121.911209,177.250610 
	C122.355766,177.247025 122.424484,177.512772 122.081337,177.906891 
	C121.907692,177.843658 121.862984,177.671875 121.911209,177.250610 
z"/>
<path fill="#1C1C1C" opacity="1.000000" stroke="none" 
	d="
M89.859314,177.245575 
	C90.285484,177.246536 90.343002,177.517624 90.020088,177.917786 
	C89.849670,177.853088 89.800003,177.676025 89.859314,177.245575 
z"/>
<path fill="#232323" opacity="1.000000" stroke="none" 
	d="
M61.542671,177.154755 
	C61.809635,177.091553 61.971252,177.256454 62.089607,177.448090 
	C62.112858,177.485718 61.968933,177.626602 61.750328,177.807281 
	C61.539753,177.727219 61.480965,177.559708 61.542671,177.154755 
z"/>
<path fill="#FF1C16" opacity="1.000000" stroke="none" 
	d="
M53.795856,150.547836 
	C53.977360,150.311081 54.297306,150.382706 54.785698,150.709991 
	C54.635746,150.832993 54.295795,150.796494 53.795856,150.547836 
z"/>
<path fill="#FF1D16" opacity="1.000000" stroke="none" 
	d="
M118.784027,116.442200 
	C118.976646,116.385452 119.294655,116.594147 119.758728,117.050903 
	C119.572998,117.101860 119.241203,116.904755 118.784027,116.442200 
z"/>
<path fill="#FF1C16" opacity="1.000000" stroke="none" 
	d="
M77.673477,122.853165 
	C77.647934,123.039513 77.361336,123.245071 76.801407,123.427620 
	C76.822853,123.227203 77.117645,123.049782 77.673477,122.853165 
z"/>
<path fill="#F5EEEE" opacity="1.000000" stroke="none" 
	d="
M99.604324,93.357422 
	C101.698952,95.712700 103.474785,98.217010 105.528435,100.895828 
	C108.010887,103.939873 110.215523,106.809418 112.704865,109.853615 
	C113.231674,110.455643 113.473793,110.883026 113.804405,111.547195 
	C106.196701,113.786354 98.500511,115.788704 90.431625,117.816010 
	C90.058937,117.840973 90.052025,117.406364 90.107681,116.985184 
	C90.163338,116.564011 90.235687,116.081985 90.235687,116.081985 
	C93.252296,108.556808 96.268913,101.031639 99.604324,93.357422 
z"/>
<path fill="#F5EDED" opacity="1.000000" stroke="none" 
	d="
M54.386078,148.029465 
	C50.784130,145.687225 51.206150,142.866104 53.557346,140.436264 
	C59.706284,134.081680 67.240814,129.913498 75.786667,127.621544 
	C75.914337,127.939980 75.972542,127.946358 75.704147,128.099991 
	C75.143082,128.795288 74.850403,129.336975 74.557724,129.878647 
	C71.056770,134.240479 67.892555,138.945221 63.929863,142.836868 
	C61.513233,145.210175 57.867256,146.331711 54.386078,148.029465 
z"/>
<path fill="#F6EBEB" opacity="1.000000" stroke="none" 
	d="
M95.655998,79.514816 
	C94.205719,73.332764 92.892059,67.242775 92.094612,61.085930 
	C91.794212,58.766552 92.689499,56.292313 93.353043,53.404903 
	C93.818939,52.631477 93.971504,52.341812 94.124062,52.052147 
	C95.148117,52.059971 96.172173,52.067791 97.579926,52.101326 
	C98.051476,52.455418 98.251495,52.686859 98.904831,53.100410 
	C99.439491,53.656868 99.679443,53.885578 99.965828,54.065571 
	C99.965828,54.065571 100.006157,54.022839 99.991890,54.271004 
	C99.977623,54.519173 100.187935,54.971409 100.187935,54.971409 
	C100.888008,63.531364 99.571823,71.748024 95.655998,79.514816 
z"/>
<path fill="#FF140E" opacity="1.000000" stroke="none" 
	d="
M99.939774,53.865135 
	C99.679443,53.885578 99.439491,53.656868 99.134277,53.155910 
	C99.319626,53.176479 99.616669,53.420586 99.939774,53.865135 
z"/>
<path fill="#FF1C16" opacity="1.000000" stroke="none" 
	d="
M74.843010,129.730057 
	C74.850403,129.336975 75.143082,128.795288 75.688019,128.075562 
	C75.669617,128.458817 75.398956,129.020142 74.843010,129.730057 
z"/>
<path fill="#FF1D16" opacity="1.000000" stroke="none" 
	d="
M90.086014,116.141823 
	C90.235687,116.081985 90.163338,116.564011 90.045036,116.777077 
	C89.650032,116.704277 89.653236,116.441444 90.086014,116.141823 
z"/>
<path fill="#FF140E" opacity="1.000000" stroke="none" 
	d="
M100.279236,54.846130 
	C100.187935,54.971409 99.977623,54.519173 99.962524,54.270256 
	C100.294823,54.158302 100.435860,54.391472 100.279236,54.846130 
z"/>
<path fill="#F2F2F2" opacity="1.000000" stroke="none" 
	d="
M96.075439,208.011993 
	C96.014442,199.977020 95.953445,191.942062 96.095055,183.343964 
	C96.464699,182.500870 96.408020,182.247604 96.127625,182.021072 
	C101.054619,180.294586 106.423439,182.065994 107.348328,187.019424 
	C108.341743,192.339828 108.106873,198.130203 107.163742,203.496826 
	C106.383713,207.935379 102.227661,209.388580 97.274185,208.864243 
	C96.565636,208.343170 96.340645,208.153702 96.075439,208.011993 
z"/>
<path fill="#FFFFFF" opacity="1.000000" stroke="none" 
	d="
M96.049431,208.298111 
	C96.340645,208.153702 96.565636,208.343170 96.870392,208.767090 
	C96.668060,208.830612 96.345741,208.707428 96.049431,208.298111 
z"/>
<path fill="#FFFFFF" opacity="1.000000" stroke="none" 
	d="
M96.039078,182.257767 
	C96.408020,182.247604 96.464699,182.500870 96.187454,182.882294 
	C96.035004,182.820633 95.992767,182.657547 96.039078,182.257767 
z"/>
<path fill="#EAEAEA" opacity="1.000000" stroke="none" 
	d="
M72.396782,194.204315 
	C70.708679,194.258057 69.407234,194.258057 67.779541,194.258057 
	C67.779541,189.873367 67.779541,185.683075 67.779541,181.496048 
	C74.392242,180.385025 77.365517,181.557419 77.923676,185.850891 
	C78.441032,189.830475 78.166084,193.665009 72.396782,194.204315 
z"/>
<path fill="#F5EFEF" opacity="1.000000" stroke="none" 
	d="
M119.922348,113.358070 
	C126.691490,112.721489 133.369034,112.435020 140.509766,112.126419 
	C141.707352,112.459213 142.715012,112.621323 143.126328,113.204216 
	C144.516632,115.174522 146.812271,117.354744 146.704239,119.342903 
	C146.523407,122.670639 143.100204,124.065140 140.306992,122.967491 
	C133.343964,120.231247 126.639198,116.837807 119.922348,113.358070 
z"/>
<path fill="#FF2319" opacity="1.000000" stroke="none" 
	d="
M93.912430,52.060799 
	C93.971504,52.341812 93.818939,52.631477 93.426178,52.993019 
	C93.357574,52.733082 93.529182,52.401264 93.912430,52.060799 
z"/>
</svg>