<?xml version="1.0" standalone="no"?>
<!DOCTYPE svg PUBLIC "-//W3C//DTD SVG 20010904//EN"
 "http://www.w3.org/TR/2001/REC-SVG-20010904/DTD/svg10.dtd">
<svg version="1.0" xmlns="http://www.w3.org/2000/svg"
 width="606.000000pt" height="747.000000pt" viewBox="0 0 606.000000 747.000000"
 preserveAspectRatio="xMidYMid meet">
<metadata>
Created by potrace 1.10, written by Peter Selinger 2001-2011
</metadata>
<g transform="translate(0.000000,747.000000) scale(0.100000,-0.100000)"
fill="#af2323" stroke="none">
<path d="M521 7416 c-7 -9 -23 -16 -36 -16 -12 0 -42 -11 -66 -25 -24 -14 -51
-28 -59 -32 -66 -30 -224 -188 -253 -253 -4 -8 -18 -35 -32 -59 -14 -24 -25
-52 -25 -62 0 -9 -7 -30 -16 -46 -21 -36 -12 -158 12 -167 9 -3 17 1 20 12 3
9 14 36 25 60 10 23 19 48 19 55 0 15 74 163 98 196 39 55 158 162 206 187 28
14 71 37 96 50 25 13 53 24 64 24 28 0 129 61 119 71 -5 5 -43 12 -84 15 -62
5 -77 4 -88 -10z"/>
<path d="M4263 7423 c-25 -3 -43 -9 -42 -16 0 -15 108 -67 139 -67 19 0 59
-17 120 -51 112 -62 157 -95 223 -161 43 -43 80 -78 84 -78 5 0 363 -354 695
-689 101 -101 190 -190 198 -197 114 -99 167 -166 225 -281 21 -43 49 -98 61
-123 13 -24 27 -46 32 -48 21 -7 28 138 8 176 -7 15 -23 47 -35 72 -43 89 -54
101 -361 405 -135 133 -384 381 -555 550 -270 267 -421 404 -475 428 -8 4 -35
18 -59 32 -24 14 -54 25 -66 25 -11 0 -30 7 -41 15 -18 14 -59 16 -151 8z"/>
<path d="M655 7289 c-91 -21 -195 -59 -195 -71 0 -4 -17 -15 -37 -23 -47 -19
-148 -117 -164 -159 -7 -17 -23 -45 -36 -62 -13 -17 -23 -37 -23 -45 0 -8 -10
-39 -23 -69 l-22 -55 -3 -3038 c-3 -3265 -5 -3100 46 -3234 11 -29 29 -64 41
-79 12 -15 21 -31 21 -37 0 -14 89 -109 118 -125 16 -9 21 -19 17 -33 -5 -16
-1 -19 27 -19 18 0 56 -12 83 -26 28 -14 84 -34 125 -45 74 -19 117 -19 2420
-17 2239 3 2347 4 2392 21 25 10 63 27 84 38 21 10 46 19 55 19 17 0 62 35
130 102 20 21 42 38 48 38 6 0 14 12 17 27 4 16 17 40 30 55 12 15 25 42 29
60 4 18 14 43 22 56 8 13 19 62 24 110 6 55 9 1012 7 2592 l-3 2505 -34 70
c-18 39 -46 84 -63 101 -26 28 -28 35 -18 54 6 12 9 29 5 38 -6 16 -8 15 -20
-2 -14 -18 -15 -18 -42 5 -15 13 -51 49 -80 79 -94 99 -560 561 -674 667 -19
18 -49 50 -68 73 -19 22 -40 40 -47 40 -7 0 -19 10 -25 22 -7 12 -21 30 -33
40 -18 15 -18 17 -4 18 9 0 20 5 24 11 4 7 -4 10 -22 9 -47 -3 -54 -1 -65 23
-5 12 -23 30 -40 39 -17 10 -29 25 -29 38 0 12 -7 20 -16 20 -8 0 -28 12 -43
28 -16 15 -66 46 -112 69 -180 89 -35 83 -2034 82 -1035 -1 -1766 -5 -1790
-10z m3610 -87 c39 -8 84 -20 100 -27 17 -7 37 -16 45 -19 57 -23 129 -84 335
-285 868 -851 1005 -990 1005 -1017 0 -4 6 -15 13 -23 37 -43 37 -66 37 -2628
0 -1813 -3 -2515 -11 -2550 -11 -46 -32 -102 -50 -133 -5 -8 -14 -26 -19 -39
-13 -30 -131 -148 -161 -161 -13 -5 -31 -14 -39 -19 -8 -5 -22 -12 -30 -15 -8
-3 -22 -10 -30 -15 -49 -30 -166 -31 -2440 -31 -2383 0 -2393 0 -2463 40 -9 5
-25 15 -35 20 -9 6 -28 15 -41 20 -30 13 -148 131 -161 161 -5 13 -14 31 -19
39 -5 8 -12 22 -15 30 -3 8 -10 22 -15 30 -5 8 -16 45 -25 82 -15 60 -16 336
-16 3063 0 2731 1 3003 16 3063 9 37 23 79 30 94 8 14 14 33 14 41 0 8 7 17
15 21 8 3 15 12 15 21 0 20 144 165 163 165 8 0 17 7 21 15 3 8 14 15 24 15
10 0 27 7 38 15 10 8 30 15 44 15 14 1 46 6 71 13 70 19 3486 17 3584 -1z"/>
<path d="M2770 6003 c-97 -64 -113 -102 -118 -283 -5 -214 18 -380 77 -556 40
-118 54 -155 69 -181 17 -30 15 -78 -3 -93 -8 -7 -15 -22 -15 -34 0 -11 -7
-30 -15 -40 -8 -11 -15 -28 -15 -39 0 -10 -6 -31 -14 -45 -8 -15 -21 -47 -31
-72 -9 -25 -23 -58 -31 -73 -8 -16 -14 -35 -14 -42 0 -7 -6 -26 -14 -42 -7
-15 -21 -46 -31 -68 -9 -22 -23 -53 -31 -68 -8 -16 -14 -37 -14 -47 0 -9 -7
-23 -15 -30 -8 -7 -15 -19 -15 -27 0 -8 -6 -27 -13 -41 -14 -27 -37 -78 -65
-142 -8 -19 -19 -42 -24 -50 -4 -8 -11 -22 -14 -30 -3 -8 -12 -28 -19 -45 -53
-118 -54 -120 -97 -139 -83 -38 -364 -178 -423 -211 -33 -19 -67 -37 -75 -41
-8 -4 -44 -28 -80 -52 -151 -104 -253 -215 -284 -310 -17 -49 -17 -55 -1 -94
23 -60 51 -96 96 -124 35 -21 49 -24 141 -24 75 1 108 5 122 15 11 8 30 15 42
15 12 0 27 7 34 15 7 8 19 15 27 15 36 0 193 139 292 259 29 35 60 71 68 80 9
8 29 37 45 63 16 26 34 48 39 48 5 0 9 5 9 11 0 6 13 28 29 48 16 20 39 55 51
79 12 23 26 42 31 42 5 0 9 5 9 11 0 17 91 153 119 176 14 12 38 22 52 23 15
0 40 7 55 15 16 8 36 15 45 15 9 0 30 7 45 15 16 8 39 15 52 15 12 0 30 4 40
9 22 12 133 43 237 66 44 10 99 24 123 32 23 7 54 13 68 13 13 0 41 7 61 15
19 8 43 15 52 15 9 -1 52 -34 95 -75 43 -41 83 -75 88 -75 5 0 24 -11 41 -24
37 -28 229 -126 247 -126 7 0 24 -6 38 -14 39 -20 104 -36 217 -53 117 -17
250 -6 322 28 122 58 155 188 78 309 -33 53 -133 120 -178 120 -10 0 -30 6
-45 14 -15 7 -86 19 -158 26 -105 10 -165 10 -310 0 -98 -7 -183 -14 -187 -17
-17 -10 -201 -32 -213 -25 -7 4 -42 45 -78 92 -143 184 -276 361 -276 366 0 4
-13 23 -30 44 -16 21 -30 41 -30 44 0 9 -43 70 -52 74 -14 6 -9 67 7 88 8 10
15 32 15 47 0 15 7 44 15 64 8 19 15 46 15 60 0 13 5 34 12 46 6 12 15 42 19
67 3 25 11 65 17 90 22 92 34 188 39 308 10 234 -52 383 -186 452 -50 25 -144
27 -181 3z m152 -102 c67 -59 74 -182 26 -431 -5 -30 -14 -80 -18 -111 -4 -30
-12 -65 -19 -77 -6 -11 -11 -31 -11 -44 0 -13 -7 -41 -15 -63 -8 -22 -14 -57
-15 -77 0 -24 -5 -38 -13 -38 -16 0 -44 55 -51 100 -2 19 -12 60 -21 90 -10
30 -23 91 -31 135 -7 44 -18 107 -24 140 -16 97 -13 233 8 293 39 110 115 144
184 83z m28 -854 c0 -24 -10 -70 -22 -103 -12 -34 -22 -87 -24 -127 -2 -54 -7
-73 -23 -91 -12 -12 -21 -26 -21 -32 0 -5 -14 -25 -30 -44 -35 -42 -41 -22
-11 43 11 23 22 60 26 82 4 22 13 49 20 60 6 11 15 52 19 90 8 87 33 165 52
165 10 0 14 -13 14 -43z m22 -354 c10 -9 18 -22 18 -29 0 -35 343 -487 382
-502 4 -2 8 -10 8 -17 0 -13 -114 -45 -160 -45 -50 0 -466 -117 -495 -140 -5
-4 -22 -10 -37 -14 -14 -3 -33 -9 -42 -12 -24 -9 -19 13 14 63 17 24 30 48 30
53 0 4 6 21 14 37 7 15 21 46 31 68 9 22 23 53 31 68 8 16 14 37 14 47 0 9 7
23 15 30 8 7 15 21 15 32 0 11 6 32 13 46 8 15 21 42 30 60 9 19 17 44 17 56
0 12 6 30 14 41 7 11 16 34 19 50 14 69 32 125 41 125 5 0 18 -7 28 -17z
m-231 -267 c-7 -22 -26 -68 -42 -101 -16 -34 -29 -68 -29 -76 0 -8 -9 -34 -20
-57 -11 -23 -23 -57 -26 -75 -4 -17 -12 -37 -19 -42 -11 -9 -16 -27 -31 -118
-5 -30 -18 -48 -61 -84 -76 -65 -76 -61 -6 79 7 14 13 33 13 42 0 9 9 24 20
33 11 10 20 28 20 40 0 13 5 23 10 23 6 0 10 9 10 20 0 11 14 44 30 73 17 30
30 63 30 74 0 11 9 32 20 46 11 14 20 30 20 37 0 6 8 25 17 43 9 18 17 37 18
42 0 6 7 23 15 39 19 38 25 14 11 -38z m1460 -312 c30 -9 61 -20 69 -25 8 -5
25 -13 36 -18 43 -19 69 -71 68 -134 -1 -56 -3 -60 -44 -97 -30 -26 -56 -40
-84 -44 -47 -6 -144 6 -196 24 -19 7 -53 19 -75 27 -22 8 -53 21 -68 29 -16 8
-37 14 -47 14 -9 0 -23 7 -30 15 -7 8 -18 15 -25 15 -15 0 -124 57 -146 76 -8
8 -19 14 -23 14 -15 0 -106 65 -106 76 0 7 37 14 103 18 56 4 127 10 157 15
104 15 353 12 411 -5z m-1751 -312 c0 -12 -65 -114 -89 -140 -17 -19 -25 -21
-41 -12 -28 15 -14 40 59 107 55 51 71 61 71 45z m-175 -101 c3 -6 -4 -15 -15
-21 -11 -6 -20 -16 -20 -23 0 -7 -13 -27 -30 -45 -16 -18 -30 -35 -30 -38 0
-4 -109 -156 -138 -190 -9 -11 -35 -43 -56 -70 -57 -71 -194 -204 -210 -204
-8 0 -16 -7 -20 -15 -3 -8 -14 -15 -24 -15 -11 0 -25 -7 -32 -15 -8 -10 -31
-15 -69 -15 -51 0 -61 3 -87 31 -63 66 -25 170 102 272 100 81 213 154 334
214 30 15 57 30 60 34 3 3 30 18 60 33 73 36 99 51 113 65 13 13 54 15 62 2z"/>
<path d="M1800 2208 c0 -2 -1 -258 -3 -571 -2 -497 0 -568 13 -571 21 -5 168
-1 173 4 3 3 1 102 -3 220 -3 118 -5 218 -3 223 2 4 66 7 141 7 110 0 147 4
187 19 55 21 145 96 145 122 0 9 6 21 13 27 7 6 19 47 26 91 15 89 2 204 -27
251 -59 94 -117 142 -187 153 -22 4 -62 11 -90 16 -43 8 -385 16 -385 9z m451
-199 l49 -50 0 -97 c0 -104 -9 -130 -60 -170 -31 -24 -233 -53 -251 -35 -7 7
-11 78 -10 202 0 105 0 193 1 196 0 3 50 5 111 5 l110 0 50 -51z"/>
<path d="M2650 2205 c-4 -100 1 -1129 5 -1133 3 -3 92 -5 198 -4 180 3 226 9
302 39 45 18 165 126 165 149 0 6 7 17 15 24 8 7 15 20 15 30 0 10 7 23 15 30
8 7 15 23 15 37 0 13 8 38 17 56 26 49 25 362 -1 432 -46 123 -93 194 -164
246 -62 46 -110 65 -211 84 -77 14 -371 22 -371 10z m380 -166 c19 -8 49 -24
67 -36 37 -27 103 -123 103 -151 0 -11 7 -36 15 -55 21 -50 21 -281 0 -317 -8
-14 -14 -36 -15 -48 0 -52 -80 -160 -141 -192 -33 -17 -62 -22 -132 -23 l-89
-2 -1 423 -2 423 80 -4 c44 -2 96 -10 115 -18z"/>
<path d="M3608 2203 c-2 -5 -1 -262 2 -573 l5 -564 90 -1 90 0 0 247 c0 136 3
249 5 251 3 3 79 2 170 -2 105 -5 170 -4 178 2 9 7 12 31 10 76 l-3 66 -179 0
-180 0 0 178 -1 179 215 -3 c118 -2 220 0 225 3 6 4 10 37 10 75 l0 68 -317 3
c-174 1 -318 -1 -320 -5z"/>
<path d="M5960 654 c-17 -36 -30 -71 -30 -78 0 -17 -57 -130 -96 -191 -46 -71
-179 -205 -204 -205 -5 0 -39 -16 -77 -35 -37 -19 -75 -35 -83 -35 -8 0 -29
-8 -45 -19 -17 -10 -47 -23 -68 -30 -20 -7 -37 -16 -37 -21 0 -10 122 -24 153
-17 33 7 88 27 120 43 16 8 32 14 37 14 17 0 144 93 190 140 47 46 140 173
140 190 0 5 6 21 14 37 16 32 36 87 43 120 8 33 -7 153 -18 153 -6 0 -23 -30
-39 -66z"/>
<path d="M25 625 c-6 -61 -4 -80 9 -100 9 -13 16 -32 16 -41 0 -14 15 -48 41
-94 5 -8 12 -22 16 -30 26 -59 217 -250 251 -250 5 0 15 -7 22 -15 7 -8 20
-15 30 -15 10 0 23 -7 30 -15 7 -8 25 -15 39 -15 15 0 36 -7 47 -15 30 -23
189 -16 181 9 -2 6 -21 14 -43 19 -21 4 -42 14 -47 22 -4 8 -13 15 -18 15 -28
0 -201 90 -256 133 -109 87 -200 223 -243 364 -15 50 -46 103 -59 103 -5 0
-12 -34 -16 -75z"/>
</g>
</svg>
